<svg preserveAspectRatio="none" overflow="visible" style="display: block;" width="720" height="260" viewBox="0 0 720 260" fill="none" xmlns="http://www.w3.org/2000/svg">
<g id="&#229;&#155;&#190;&#229;&#189;&#162; / &#231;&#159;&#165;&#232;&#175;&#134;&#232;&#138;&#130;&#231;&#130;&#185;&#231;&#189;&#145;&#231;&#187;&#156;">
<path id="Vector" d="M46 156C108 103 170 82 238 112" stroke="#C9DDD3" stroke-width="2"/>
<path id="Vector_2" d="M98 70C150 101 198 164 286 190C358 211 440 202 520 180" stroke="#E1E8E3" stroke-width="1.5"/>
<path id="Vector_3" d="M520 180C571 150 618 122 674 143" stroke="#C9DDD3" stroke-width="2"/>
<path id="Vector_4" d="M46 163C49.866 163 53 159.866 53 156C53 152.134 49.866 149 46 149C42.134 149 39 152.134 39 156C39 159.866 42.134 163 46 163Z" fill="#E7F3ED" stroke="#2B8A6E" stroke-width="2"/>
<path id="Vector_5" d="M98 75C100.761 75 103 72.7614 103 70C103 67.2386 100.761 65 98 65C95.2386 65 93 67.2386 93 70C93 72.7614 95.2386 75 98 75Z" fill="white" stroke="#C9DDD3" stroke-width="2"/>
<path id="Vector_6" d="M238 117C240.761 117 243 114.761 243 112C243 109.239 240.761 107 238 107C235.239 107 233 109.239 233 112C233 114.761 235.239 117 238 117Z" fill="white" stroke="#C9DDD3" stroke-width="2"/>
<path id="Vector_7" d="M286 197C289.866 197 293 193.866 293 190C293 186.134 289.866 183 286 183C282.134 183 279 186.134 279 190C279 193.866 282.134 197 286 197Z" fill="#E7F3ED" stroke="#2B8A6E" stroke-width="2"/>
<path id="Vector_8" d="M520 185C522.761 185 525 182.761 525 180C525 177.239 522.761 175 520 175C517.239 175 515 177.239 515 180C515 182.761 517.239 185 520 185Z" fill="white" stroke="#C9DDD3" stroke-width="2"/>
<path id="Vector_9" d="M674 150C677.866 150 681 146.866 681 143C681 139.134 677.866 136 674 136C670.134 136 667 139.134 667 143C667 146.866 670.134 150 674 150Z" fill="#E7F3ED" stroke="#2B8A6E" stroke-width="2"/>
</g>
</svg>
